<?xml version="1.0" encoding="utf-8"?>
<!-- Generator: Adobe Illustrator 24.2.3, SVG Export Plug-In . SVG Version: 6.00 Build 0)  -->
<svg version="1.1" id="Layer_1" xmlns="http://www.w3.org/2000/svg" xmlns:xlink="http://www.w3.org/1999/xlink" x="0px" y="0px"
	 viewBox="0 0 37.8 35.4" style="enable-background:new 0 0 37.8 35.4;" xml:space="preserve">
<style type="text/css">
	.st0{fill:#FFFFFF;}
</style>
<g>
	<path class="st0" d="M35.2,8.4c-0.2-0.2-0.4-0.3-0.8-0.3L10.9,8.2l-1-3.8C9.4,3.1,8.2,2.2,6.8,2.2c0,0,0,0,0,0H3.3
		c-0.6,0-1,0.4-1,1s0.4,1,1,1h3.5c0,0,0,0,0,0c0.5,0,1,0.3,1.1,0.8l4.2,16.2V22c0,2.3,1.8,4.1,4.1,4.1h14.8c0.6,0,1-0.4,1-1
		s-0.4-1-1-1H16.3c-1.2,0-2.1-1-2.1-2.1v-0.1L29,20.9c2.6-0.2,4.8-2.1,5.5-4.6c0,0,0-0.1,0-0.1l0.9-6.9C35.4,8.9,35.3,8.6,35.2,8.4z
		 M32.5,15.8c-0.4,1.7-1.9,2.9-3.7,3.1l-14.9,1.1l-2.5-9.7l21.9-0.1L32.5,15.8z"/>
	<path class="st0" d="M16.3,27.4c-1.6,0-2.9,1.3-2.9,2.9c0,1.6,1.3,2.9,2.9,2.9s2.9-1.3,2.9-2.9C19.2,28.7,17.9,27.4,16.3,27.4z
		 M16.3,31.2c-0.5,0-0.9-0.4-0.9-0.9s0.4-0.9,0.9-0.9c0.5,0,0.9,0.4,0.9,0.9S16.8,31.2,16.3,31.2z"/>
	<path class="st0" d="M30.2,27.4c-1.6,0-2.9,1.3-2.9,2.9c0,1.6,1.3,2.9,2.9,2.9c1.6,0,2.9-1.3,2.9-2.9
		C33.1,28.7,31.8,27.4,30.2,27.4z M30.2,31.2c-0.5,0-0.9-0.4-0.9-0.9s0.4-0.9,0.9-0.9s0.9,0.4,0.9,0.9S30.7,31.2,30.2,31.2z"/>
</g>
</svg>
