<?xml version="1.0" encoding="utf-8"?>
<!-- Generator: Adobe Illustrator 24.2.3, SVG Export Plug-In . SVG Version: 6.00 Build 0)  -->
<svg version="1.1" id="Layer_1" xmlns="http://www.w3.org/2000/svg" xmlns:xlink="http://www.w3.org/1999/xlink" x="0px" y="0px"
	 viewBox="0 0 24.3 19.8" style="enable-background:new 0 0 24.3 19.8;" xml:space="preserve">
<style type="text/css">
	.st0{fill:#3FA9F5;}
</style>
<g id="Layer_2_1_">
	<g id="Layer_1-2">
		<path class="st0" d="M24.3,12.1c0,2.6-0.9,5.2-2.5,7.3c-0.3,0.4-0.9,0.5-1.3,0.1c-0.4-0.3-0.5-0.9-0.2-1.3
			c3.4-4.5,2.5-10.9-2-14.4S7.4,1.4,4,6c-1.3,1.8-2.1,4-2.1,6.2c0,2.2,0.7,4.4,2.1,6.2c0.2,0.5-0.1,1.1-0.6,1.3
			c-0.3,0.1-0.6,0.1-0.9-0.1c-4.1-5.3-3-13,2.3-17s13-3,17,2.3C23.4,6.9,24.3,9.5,24.3,12.1z M18.2,6.4c0.3,0.4,0.3,1,0,1.3
			l-3.1,3.1c0.3,0.5,0.4,1,0.4,1.6c0,1.8-1.5,3.3-3.3,3.3c-1.8,0-3.3-1.5-3.3-3.3c0-1.8,1.5-3.3,3.3-3.3c0,0,0,0,0,0
			c0.6,0,1.1,0.1,1.6,0.4l3.1-3.1C17.2,6.1,17.8,6.1,18.2,6.4z M13.6,12.4c0-0.8-0.6-1.4-1.4-1.4s-1.4,0.6-1.4,1.4s0.6,1.4,1.4,1.4
			C12.9,13.8,13.6,13.2,13.6,12.4L13.6,12.4z"/>
	</g>
</g>
</svg>
