<svg xmlns="http://www.w3.org/2000/svg" viewBox="0 0 33.33 33.33"><defs><style>.cls-1{fill:none;stroke:#022a4f;stroke-miterlimit:10;stroke-width:0.5px;}.cls-2{fill:#0178d5;}</style></defs><g id="Layer_2" data-name="Layer 2"><g id="Layer_1-2" data-name="Layer 1"><circle class="cls-1" cx="16.67" cy="16.67" r="16.42"/><path class="cls-2" d="M17.05,23.36h-.78l-.29,0a6.7,6.7,0,0,1-5.91-5.5c0-.25-.07-.51-.1-.76v-.78a.69.69,0,0,0,0-.13c.06-.36.09-.73.18-1.08a6.59,6.59,0,0,1,3.62-4.44,6.45,6.45,0,0,1,3.94-.56,6.16,6.16,0,0,1,2.09.71c.32.17.61.38.93.57l-1.56,2a4.14,4.14,0,0,0-6.3,5,4.13,4.13,0,0,0,4.38,2.4,4.07,4.07,0,0,0,3.31-2.82H16.67V15.4h6.69c0,.65,0,1.31-.05,2a6.47,6.47,0,0,1-1.64,3.74,6.55,6.55,0,0,1-3.86,2.16C17.56,23.3,17.31,23.32,17.05,23.36Z"/></g></g></svg>