<?xml version="1.0" encoding="utf-8"?>
<!-- Generator: Adobe Illustrator 24.2.3, SVG Export Plug-In . SVG Version: 6.00 Build 0)  -->
<svg version="1.1" id="Layer_1" xmlns="http://www.w3.org/2000/svg" xmlns:xlink="http://www.w3.org/1999/xlink" x="0px" y="0px"
	 viewBox="0 0 153.9 71.2" style="enable-background:new 0 0 153.9 71.2;" xml:space="preserve">
<style type="text/css">
	.st0{fill:#0178D5;}
	.st1{fill:#022A4F;}
	.st2{enable-background:new    ;}
</style>
<g id="Layer_2_1_">
	<g id="Layer_1-2">
		<path class="st0" d="M51.2,44.1H6.2L2.1,9.8l50.7,2.8L51.2,44.1z M12.9,36.6H44l0.9-16.8l-34.2-1.9L12.9,36.6z"/>
		<polygon class="st0" points="51.4,40.3 50.6,54.7 8.1,54.2 47.6,48.8 44.6,51.7 43.8,40.3 		"/>
		<polygon class="st0" points="46.2,13.5 58.6,6.5 51.6,18.9 		"/>
		<path class="st1" d="M17.2,57.9c1.1,0,2.1,0.9,2.1,2.1c0,1.1-0.9,2.1-2.1,2.1s-2.1-0.9-2.1-2.1S16,57.9,17.2,57.9L17.2,57.9
			 M17.2,56.2c-2.1,0-3.8,1.7-3.8,3.8c0,2.1,1.7,3.8,3.8,3.8S21,62.1,21,60l0,0C21,57.9,19.3,56.2,17.2,56.2
			C17.2,56.2,17.2,56.2,17.2,56.2z"/>
		<path class="st1" d="M40.8,57.9c1.1,0,2.1,0.9,2.1,2.1c0,1.1-0.9,2.1-2.1,2.1c-1.1,0-2.1-0.9-2.1-2.1S39.6,57.9,40.8,57.9
			L40.8,57.9 M40.8,56.2c-2.1,0-3.8,1.7-3.8,3.8c0,2.1,1.7,3.8,3.8,3.8c2.1,0,3.8-1.7,3.8-3.8C44.6,57.9,42.9,56.2,40.8,56.2
			C40.8,56.2,40.8,56.2,40.8,56.2z"/>
		<path class="st0" d="M52.8,5.9c2.1-0.4,4.2-0.7,6.3-0.6h0.6v0.6c0,2.1-0.2,4.3-0.6,6.3c-0.5-2.1-0.7-4.2-0.7-6.3l0.6,0.6
			C57,6.6,54.9,6.4,52.8,5.9z"/>
		<g class="st2">
			<path class="st1" d="M65.6,29.6c-1-1.1-1.5-2.6-1.5-4.6V12.1c0-2,0.5-3.5,1.5-4.6c1-1.1,2.4-1.6,4.3-1.6c1.9,0,3.3,0.5,4.3,1.6
				c1,1.1,1.5,2.6,1.5,4.6v2.1H72v-2.4c0-1.6-0.7-2.4-2-2.4s-2,0.8-2,2.4v13.5c0,1.6,0.7,2.4,2,2.4s2-0.8,2-2.4v-4.8h-1.9V17h5.6V25
				c0,2-0.5,3.5-1.5,4.6c-1,1.1-2.4,1.6-4.3,1.6C68,31.2,66.6,30.7,65.6,29.6z"/>
			<path class="st1" d="M79.4,29.6c-1-1.1-1.5-2.6-1.5-4.6V12.1c0-2,0.5-3.5,1.5-4.6c1-1.1,2.5-1.6,4.4-1.6c1.9,0,3.4,0.5,4.4,1.6
				c1,1.1,1.5,2.6,1.5,4.6V25c0,2-0.5,3.5-1.5,4.6c-1,1.1-2.5,1.6-4.4,1.6C81.8,31.2,80.4,30.7,79.4,29.6z M85.7,25.3V11.8
				c0-1.6-0.7-2.4-2-2.4c-1.3,0-2,0.8-2,2.4v13.4c0,1.6,0.7,2.4,2,2.4C85.1,27.7,85.7,26.9,85.7,25.3z"/>
			<path class="st1" d="M93.4,29.6c-1-1.1-1.5-2.6-1.5-4.6V12.1c0-2,0.5-3.5,1.5-4.6c1-1.1,2.5-1.6,4.4-1.6c1.9,0,3.4,0.5,4.4,1.6
				c1,1.1,1.5,2.6,1.5,4.6V25c0,2-0.5,3.5-1.5,4.6c-1,1.1-2.5,1.6-4.4,1.6C95.9,31.2,94.5,30.7,93.4,29.6z M99.8,25.3V11.8
				c0-1.6-0.7-2.4-2-2.4c-1.3,0-2,0.8-2,2.4v13.4c0,1.6,0.7,2.4,2,2.4C99.1,27.7,99.8,26.9,99.8,25.3z"/>
			<path class="st1" d="M106.3,6.2h5.9c1.9,0,3.4,0.5,4.3,1.5c1,1,1.4,2.5,1.4,4.5v12.4c0,2-0.5,3.5-1.4,4.5c-1,1-2.4,1.5-4.3,1.5
				h-5.9V6.2z M112.1,27.3c0.6,0,1.1-0.2,1.5-0.6c0.3-0.4,0.5-1,0.5-1.8V12.1c0-0.8-0.2-1.5-0.5-1.8c-0.3-0.4-0.8-0.6-1.5-0.6h-2
				v17.6H112.1z"/>
			<path class="st1" d="M120.6,6.2h3.9v24.6h-3.9V6.2z"/>
		</g>
		<g class="st2">
			<path class="st1" d="M127.3,6.2h10.5v3.5h-6.7v6.5h5.3v3.5h-5.3v7.6h6.7v3.5h-10.5V6.2z"/>
		</g>
		<g class="st2">
			<path class="st1" d="M140.9,29.6c-1-1.1-1.4-2.6-1.4-4.6v-1.4h3.7v1.7c0,1.6,0.7,2.4,2,2.4c0.7,0,1.2-0.2,1.5-0.6
				c0.3-0.4,0.5-1,0.5-1.9c0-1-0.2-1.9-0.7-2.7c-0.5-0.8-1.3-1.7-2.6-2.8c-1.6-1.4-2.7-2.7-3.3-3.8c-0.6-1.1-0.9-2.4-0.9-3.8
				c0-1.9,0.5-3.5,1.5-4.5c1-1.1,2.4-1.6,4.3-1.6c1.9,0,3.3,0.5,4.2,1.6c0.9,1.1,1.4,2.6,1.4,4.6v1h-3.7v-1.3c0-0.8-0.2-1.5-0.5-1.8
				c-0.3-0.4-0.8-0.6-1.4-0.6c-1.3,0-1.9,0.8-1.9,2.4c0,0.9,0.2,1.7,0.7,2.5c0.5,0.8,1.4,1.7,2.6,2.8c1.6,1.4,2.7,2.7,3.3,3.8
				c0.6,1.1,0.9,2.5,0.9,4c0,2-0.5,3.6-1.5,4.6c-1,1.1-2.4,1.6-4.3,1.6C143.3,31.2,141.9,30.7,140.9,29.6z"/>
		</g>
		<g class="st2">
			<path class="st0" d="M64.6,61.2c-1-1.2-1.6-2.8-1.6-5v-1.5H67v1.8c0,1.7,0.7,2.6,2.2,2.6c0.7,0,1.2-0.2,1.6-0.6
				c0.4-0.4,0.6-1.1,0.6-2c0-1.1-0.3-2.1-0.8-2.9c-0.5-0.8-1.4-1.9-2.8-3.1c-1.7-1.5-2.9-2.9-3.6-4.1c-0.7-1.2-1-2.6-1-4.2
				c0-2.1,0.5-3.7,1.6-4.9c1.1-1.2,2.6-1.7,4.6-1.7c2,0,3.5,0.6,4.5,1.7c1,1.2,1.5,2.8,1.5,5v1.1h-3.9v-1.4c0-0.9-0.2-1.6-0.5-2
				c-0.4-0.4-0.9-0.6-1.6-0.6c-1.4,0-2.1,0.8-2.1,2.5c0,1,0.3,1.9,0.8,2.7c0.5,0.8,1.5,1.8,2.8,3c1.7,1.5,2.9,2.9,3.6,4.1
				c0.7,1.2,1,2.7,1,4.4c0,2.2-0.5,3.8-1.6,5c-1.1,1.2-2.6,1.7-4.7,1.7C67.2,63,65.7,62.4,64.6,61.2z"/>
			<path class="st0" d="M77.9,36h4.2v10.8h4.5V36h4.2v26.6h-4.2v-12h-4.5v12h-4.2V36z"/>
			<path class="st0" d="M95.2,61.2c-1.1-1.2-1.6-2.8-1.6-4.9v-14c0-2.1,0.5-3.8,1.6-4.9c1.1-1.2,2.7-1.7,4.7-1.7
				c2,0,3.6,0.6,4.7,1.7c1.1,1.2,1.6,2.8,1.6,4.9v14c0,2.1-0.5,3.8-1.6,4.9c-1.1,1.2-2.7,1.7-4.7,1.7C97.8,63,96.3,62.4,95.2,61.2z
				 M102,56.6V42.1c0-1.7-0.7-2.6-2.2-2.6s-2.2,0.9-2.2,2.6v14.5c0,1.7,0.7,2.6,2.2,2.6S102,58.3,102,56.6z"/>
			<path class="st0" d="M109,36h6.1c2.1,0,3.6,0.6,4.7,1.7c1,1.1,1.6,2.7,1.6,4.9v2.6c0,2.2-0.5,3.8-1.6,4.9c-1,1.1-2.6,1.7-4.7,1.7
				h-2v10.8H109V36z M115.2,48c0.7,0,1.2-0.2,1.5-0.6c0.3-0.4,0.5-1,0.5-1.9v-3.1c0-0.9-0.2-1.6-0.5-1.9c-0.3-0.4-0.9-0.6-1.5-0.6
				h-2V48H115.2z"/>
		</g>
	</g>
</g>
</svg>
