<svg xmlns="http://www.w3.org/2000/svg" viewBox="0 0 63.7 25.04"><defs><style>.cls-1{fill:#fff;}</style></defs><g id="Layer_2" data-name="Layer 2"><g id="Layer_1-2" data-name="Layer 1"><path class="cls-1" d="M21,16.61H1.74L0,2l21.71,1.2ZM4.62,13.38h13.3l.39-7.18L3.66,5.39Z"/><polygon class="cls-1" points="21.06 15 20.75 21.16 2.54 20.94 19.45 18.61 18.19 19.87 17.83 15 21.06 15"/><polygon class="cls-1" points="18.87 3.53 24.16 0.52 21.15 5.82 18.87 3.53"/><path class="cls-1" d="M6.44,22.56a.85.85,0,1,1-.85.85.85.85,0,0,1,.85-.85m0-.79a1.64,1.64,0,1,0,1.63,1.64,1.63,1.63,0,0,0-1.63-1.64Z"/><path class="cls-1" d="M16.53,22.56a.85.85,0,1,1-.84.85.85.85,0,0,1,.84-.85m0-.79a1.64,1.64,0,1,0,1.64,1.64,1.63,1.63,0,0,0-1.64-1.64Z"/><path class="cls-1" d="M21.7.27A12.46,12.46,0,0,1,24.41,0h.27V.27A12.55,12.55,0,0,1,24.41,3,12.55,12.55,0,0,1,24.14.27l.27.27A12.46,12.46,0,0,1,21.7.27Z"/><path class="cls-1" d="M27.16,10.41a2.83,2.83,0,0,1-.64-2V2.9a2.8,2.8,0,0,1,.64-2A2.35,2.35,0,0,1,29,.26a2.37,2.37,0,0,1,1.84.68,2.8,2.8,0,0,1,.63,2v.91H29.9v-1c0-.69-.29-1-.86-1s-.86.35-.86,1V8.56c0,.68.29,1,.86,1s.86-.35.86-1V6.5h-.83V5h2.39V8.44a2.83,2.83,0,0,1-.63,2,2.41,2.41,0,0,1-1.84.68A2.38,2.38,0,0,1,27.16,10.41Z"/><path class="cls-1" d="M33.06,10.4a2.73,2.73,0,0,1-.65-2V2.9A2.7,2.7,0,0,1,33.06,1a2.87,2.87,0,0,1,3.73,0,2.75,2.75,0,0,1,.64,2V8.44a2.77,2.77,0,0,1-.64,2,2.87,2.87,0,0,1-3.73,0Zm2.72-1.85V2.8c0-.69-.29-1-.86-1s-.86.35-.86,1V8.55c0,.69.29,1,.86,1S35.78,9.24,35.78,8.55Z"/><path class="cls-1" d="M39.07,10.4a2.77,2.77,0,0,1-.64-2V2.9A2.75,2.75,0,0,1,39.07,1a2.88,2.88,0,0,1,3.74,0,2.75,2.75,0,0,1,.64,2V8.44a2.77,2.77,0,0,1-.64,2,2.88,2.88,0,0,1-3.74,0ZM41.8,8.55V2.8c0-.69-.29-1-.86-1s-.86.35-.86,1V8.55c0,.69.29,1,.86,1S41.8,9.24,41.8,8.55Z"/><path class="cls-1" d="M44.57.41h2.52a2.4,2.4,0,0,1,1.85.66A2.71,2.71,0,0,1,49.56,3V8.34a2.71,2.71,0,0,1-.62,1.94,2.4,2.4,0,0,1-1.85.66H44.57Zm2.49,9a.82.82,0,0,0,.63-.24,1.17,1.17,0,0,0,.22-.78V2.93a1.17,1.17,0,0,0-.22-.78.82.82,0,0,0-.63-.24h-.84V9.43Z"/><path class="cls-1" d="M50.67.41h1.66V10.94H50.67Z"/><path class="cls-1" d="M53.56.41h4.52v1.5H55.22V4.69h2.27V6.2H55.22V9.43h2.86v1.51H53.56Z"/><path class="cls-1" d="M59.39,10.41a2.82,2.82,0,0,1-.62-2v-.6h1.56v.72c0,.68.29,1,.86,1a.82.82,0,0,0,.64-.25,1.21,1.21,0,0,0,.22-.81,2.2,2.2,0,0,0-.3-1.16,5.67,5.67,0,0,0-1.11-1.22,6.39,6.39,0,0,1-1.43-1.63,3.21,3.21,0,0,1-.41-1.65A2.75,2.75,0,0,1,59.43.94,2.36,2.36,0,0,1,61.27.26a2.28,2.28,0,0,1,1.8.68,2.89,2.89,0,0,1,.6,2v.44H62.11V2.8A1.2,1.2,0,0,0,61.9,2a.76.76,0,0,0-.62-.25c-.55,0-.83.34-.83,1a2,2,0,0,0,.31,1.07A6.05,6.05,0,0,0,61.88,5a6,6,0,0,1,1.43,1.64,3.65,3.65,0,0,1,.39,1.73,2.86,2.86,0,0,1-.63,2,2.42,2.42,0,0,1-1.86.69A2.33,2.33,0,0,1,59.39,10.41Z"/><path class="cls-1" d="M26.74,24a3.1,3.1,0,0,1-.67-2.12v-.65h1.69V22c0,.73.31,1.1.93,1.1a.87.87,0,0,0,.69-.27,1.26,1.26,0,0,0,.23-.87,2.35,2.35,0,0,0-.32-1.25,6.06,6.06,0,0,0-1.2-1.31,7.14,7.14,0,0,1-1.54-1.76,3.53,3.53,0,0,1-.44-1.78,2.94,2.94,0,0,1,.68-2.09,2.56,2.56,0,0,1,2-.74,2.47,2.47,0,0,1,1.94.74,3.08,3.08,0,0,1,.66,2.12v.47H29.68v-.58a1.34,1.34,0,0,0-.23-.86.84.84,0,0,0-.66-.26c-.6,0-.9.36-.9,1.09a2.09,2.09,0,0,0,.34,1.15,6.12,6.12,0,0,0,1.21,1.3A6.78,6.78,0,0,1,31,19.93a3.93,3.93,0,0,1,.42,1.86,3.05,3.05,0,0,1-.69,2.15,2.59,2.59,0,0,1-2,.75A2.52,2.52,0,0,1,26.74,24Z"/><path class="cls-1" d="M32.42,13.16h1.79v4.62h1.92V13.16h1.78V24.52H36.13V19.41H34.21v5.11H32.42Z"/><path class="cls-1" d="M39.81,23.94a3,3,0,0,1-.7-2.11v-6a3,3,0,0,1,.7-2.11,3.08,3.08,0,0,1,4,0,3,3,0,0,1,.7,2.11v6a3,3,0,0,1-.7,2.11,3.08,3.08,0,0,1-4,0Zm2.94-2v-6.2c0-.75-.31-1.12-.92-1.12s-.93.37-.93,1.12v6.2c0,.75.31,1.12.93,1.12S42.75,22.69,42.75,21.94Z"/><path class="cls-1" d="M45.74,13.16h2.63a2.6,2.6,0,0,1,2,.71A3,3,0,0,1,51,16v1.12a3,3,0,0,1-.66,2.09,2.6,2.6,0,0,1-2,.71h-.84v4.63H45.74Zm2.63,5.11A.86.86,0,0,0,49,18a1.27,1.27,0,0,0,.22-.83V15.85A1.29,1.29,0,0,0,49,15a.86.86,0,0,0-.66-.24h-.84v3.49Z"/></g></g></svg>