<svg xmlns="http://www.w3.org/2000/svg" viewBox="0 0 24.74 27.15"><defs><style>.cls-1{fill:#3fa9f5;}</style></defs><g id="Layer_2" data-name="Layer 2"><g id="Layer_1-2" data-name="Layer 1"><path class="cls-1" d="M15.79.13a2,2,0,0,0-1.15,2.53l.12.33L5.62,11.33a.5.5,0,0,0-.13.54l2.42,6.44a.47.47,0,0,0,.44.32l12.38.27.12.33a2,2,0,0,0,3.69-1.38L18.32,1.28A2,2,0,0,0,15.79.13ZM23.62,18.2a1,1,0,0,1-1.84.69l-.25-.65a.5.5,0,0,0-.45-.32L8.71,17.65,6.53,11.83l9.14-8.34A.48.48,0,0,0,15.8,3l-.24-.65a1,1,0,0,1,1.84-.69Z"/><path class="cls-1" d="M5.78,11.23,2.55,12.44a3.94,3.94,0,0,0,2.77,7.37L8.54,18.6A.5.5,0,0,0,8.83,18L6.41,11.52A.5.5,0,0,0,5.78,11.23Zm2,6.62L5,18.89A3,3,0,0,1,2.9,13.36l2.76-1Z"/><path class="cls-1" d="M23.2,6.83l-3.11.11a.51.51,0,0,0-.39.22.48.48,0,0,0-.05.45l1.72,4.6a.49.49,0,0,0,.33.3.47.47,0,0,0,.31,0l.13-.08,2.42-2a.48.48,0,0,0,.15-.55l-1-2.76A.47.47,0,0,0,23.2,6.83Zm.47,3.09-1.62,1.31L20.81,7.9l2.07-.08Z"/><path class="cls-1" d="M12.78,23l-.63-.29L8.77,17.86a.49.49,0,0,0-.58-.18L4.51,19.06a.49.49,0,0,0-.24.73l4.78,7.14a.49.49,0,0,0,.58.19l.09,0,3.2-2h0a1.19,1.19,0,0,0,.46-1.39A1.2,1.2,0,0,0,12.78,23Zm-.31,1.16a.27.27,0,0,1-.07.08L9.61,26,5.44,19.76l2.74-1,3.23,4.7a.42.42,0,0,0,.21.16l.75.35a.17.17,0,0,1,.1.11A.19.19,0,0,1,12.47,24.2Z"/><rect class="cls-1" x="17.72" y="2.41" width="0.98" height="16.72" transform="translate(-2.62 7.08) rotate(-20.55)"/></g></g></svg>