<svg xmlns="http://www.w3.org/2000/svg" viewBox="0 0 23.45 29.58"><defs><style>.cls-1{fill:#3fa9f5;}</style></defs><g id="Layer_2" data-name="Layer 2"><g id="Layer_1-2" data-name="Layer 1"><path class="cls-1" d="M23.44,24.39,22.12,7.75a2.08,2.08,0,0,0-2.07-1.91h-2.6V5.72A5.72,5.72,0,1,0,6,5.72v.12H3.4A2.07,2.07,0,0,0,1.34,7.75L0,24.4a4.81,4.81,0,0,0,4.81,5.18H18.64a4.81,4.81,0,0,0,4.8-5.19ZM7.74,5.72a4,4,0,1,1,8,0v.12h-8ZM20.9,26.86a3,3,0,0,1-2.26,1H4.82a3.08,3.08,0,0,1-3.08-3.32L3.06,7.88a.35.35,0,0,1,.34-.31H6V9.7a.87.87,0,1,0,1.73,0V7.57h8V9.7a.87.87,0,0,0,1.74,0V7.57h2.6a.34.34,0,0,1,.34.31l1.32,16.65A3,3,0,0,1,20.9,26.86Z"/><path class="cls-1" d="M15.63,15.94a.86.86,0,0,0-1.22,0l-3.87,3.87L9.05,18.32a.87.87,0,0,0-1.23,1.22l2.1,2.1a.89.89,0,0,0,.62.26.87.87,0,0,0,.61-.26l4.48-4.48A.86.86,0,0,0,15.63,15.94Z"/></g></g></svg>