<svg xmlns="http://www.w3.org/2000/svg" viewBox="0 0 25.28 22.64"><defs><style>.cls-1{fill:#3fa9f5;}</style></defs><g id="Layer_2" data-name="Layer 2"><g id="Layer_1-2" data-name="Layer 1"><path class="cls-1" d="M24.53,22.64H.75A.76.76,0,0,1,0,21.89V8.46a.75.75,0,0,1,.75-.75H24.53a.74.74,0,0,1,.75.75V21.89A.75.75,0,0,1,24.53,22.64Zm-23-1.5H23.78V9.21H1.5Z"/><path class="cls-1" d="M24.53,9.21H.75a.76.76,0,0,1-.71-1L2.78.5a.74.74,0,0,1,.7-.5H21.8a.73.73,0,0,1,.7.5l2.74,7.71a.75.75,0,0,1-.09.68A.77.77,0,0,1,24.53,9.21ZM1.81,7.71H23.47L21.27,1.5H4Z"/><path class="cls-1" d="M15.78,14.79a.93.93,0,0,1-.29,0l-2.85-1.2L9.8,14.74a.78.78,0,0,1-.71-.07A.77.77,0,0,1,8.75,14V8.46a.75.75,0,0,1,.75-.75h6.28a.75.75,0,0,1,.75.75V14a.77.77,0,0,1-.34.63A.75.75,0,0,1,15.78,14.79ZM12.64,12a.72.72,0,0,1,.29.06l2.1.88V9.21H10.25v3.7l2.1-.88A.72.72,0,0,1,12.64,12Z"/></g></g></svg>