<svg xmlns="http://www.w3.org/2000/svg" viewBox="0 0 20.68 28.39"><defs><style>.cls-1{fill:#3fa9f5;}</style></defs><g id="Layer_2" data-name="Layer 2"><g id="Layer_1-2" data-name="Layer 1"><path class="cls-1" d="M20.67,19.36a10.35,10.35,0,0,0-7.8-9.65,5.2,5.2,0,1,0-5,0A10.33,10.33,0,0,0,0,19.69l0,.6A2.21,2.21,0,0,0,2.2,22.5h.11v5.89H20.68v-9ZM6.16,5.19a4.2,4.2,0,1,1,4.2,4.2A4.2,4.2,0,0,1,6.16,5.19ZM3.31,27.39V22.5H6.43v4.89Zm4.12,0V22.5H9.7a2.21,2.21,0,0,0,0-4.41H7.43V14.42H12v4.12h3.85v8.85ZM13,15.14l2.37,2.4H13Zm6.7,12.25H16.83V17.61l-4.14-4.19H6.43v4.67H4.53v1H9.7a1.21,1.21,0,0,1,0,2.41H2.2A1.2,1.2,0,0,1,1,20.32l0-.6a9.33,9.33,0,1,1,18.65,0Z"/></g></g></svg>